PathFileType	4	(X/Y/Z)	C:/Users/beibeiliu/ov580/test_trc/capture2\sequence.25_training_dense_left.trc
DataRate	CameraRate	NumFrames	NumMarkers	Units	OrigDataRate	OrigDataStartFrame	OrigNumFrames
120	120	16	19	mm	120	86	343
Frame#	Time	ThumbCMC			ThumbMCP			ThumbIP			ThumbTip			IndexMCP			IndexPIP			IndexTip			MiddleMCP			MiddlePIP			MiddleTip			RingMCP			RingPIP			RingTip			PinkyMCP			PinkyPIP			PinkyTip			BackHand1			BackHand2			BackHand3	
		X0	Y0	Z0	X1	Y1	Z1	X2	Y2	Z2	X3	Y3	Z3	X4	Y4	Z4	X5	Y5	Z5	X6	Y6	Z6	X7	Y7	Z7	X8	Y8	Z8	X9	Y9	Z9	X10	Y10	Z10	X11	Y11	Z11	X12	Y12	Z12	X13	Y13	Z13	X14	Y14	Z14	X15	Y15	Z15	X16	Y16	Z16	X17	Y17	Z17	X18	Y18	Z18	
85	0.708333	-153.563	38.4889	7.38508	-153.845	29.9856	-20.5567	-149.526	27.7461	-45.8508	-145.189	26.4511	-69.4372	-158.983	51.374	-64.5407	-182.144	35.0032	-66.6551	-187.356	34.0196	-32.6616	-174.31	63.2157	-63.8064	-197.758	39.9818	-54.9335	-192.138	40.2095	-21.4116	-192.963	75.7181	-59.3626	-206.402	49.474	-47.6295	-196.109	52.5675	-13.5809	-199.382	105.739	-55.1338	-207.656	102.969	-69.5219	-216.72	112.09	-93.6213	-169.352	101.987	-11.8708	-168.268	96.441	16.2399	-146.523	74.3531	4.66646	
86	0.716667	-152.932	41.4339	9.13594	-150.954	28.7668	-19.0584	-145.368	23.6793	-43.4028	-143.341	26.2984	-71.0464	-157.956	51.813	-62.4527	-180.356	28.2299	-63.9804	-183.481	31.811	-28.7712	-176.425	64.5712	-62.0108	-195.846	39.5945	-56.5505	-189.526	41.1762	-16.4171	-190.892	71.3199	-58.0987	-207.136	47.1499	-43.4133	-196.561	49.4478	-14.91	-197.84	99.4579	-54.3529	-208.04	95.5869	-74.0492	-219.388	103.781	-91.8776	-171.498	100.57	-11.151	-167.952	97.5006	15.3254	-144.872	76.3768	3.18557	
87	0.725	-149.399	41.9909	10.7105	-146.135	27.8611	-16.9333	-144.101	27.9913	-42.4208	-139.585	23.6643	-66.1343	-155.42	49.668	-63.1	-176.425	28.1477	-63.1021	-179.925	28.989	-28.0446	-172.631	58.1528	-63.2418	-190.624	33.2188	-54.7236	-186.676	36.2809	-19.4265	-191.594	70.081	-58.4552	-202.885	43.3816	-46.2505	-191.233	47.7131	-13.8282	-198.606	94.8394	-54.1757	-211.011	91.3002	-74.2692	-220.05	93.3847	-93.5003	-172.005	101.858	-12.5928	-172.477	98.8889	19.5547	-146.153	79.6145	3.79906	
88	0.733333	-145.177	46.1564	10.4459	-142.208	31.9987	-13.3447	-134.791	27.1204	-43.1417	-136.525	27.1982	-66.1099	-151.246	51.2164	-59.4467	-169.495	22.5213	-58.9381	-176.79	26.5147	-28.4536	-173.859	55.6338	-63.1306	-187.865	29.8464	-50.635	-181.614	33.2689	-17.8303	-190.51	66.3288	-56.754	-198.662	38.8437	-45.9406	-190.07	44.9647	-13.7495	-199.427	89.0262	-55.4991	-208.44	81.9272	-72.8673	-220.506	82.177	-93.8014	-173.42	99.5591	-12.3763	-176.069	100.484	16.3755	-146.751	81.4206	-0.263996	
89	0.741667	-143.403	50.9855	11.4965	-137.661	36.2073	-11.481	-132.4	31.3629	-38.939	-128.917	26.4509	-58.2618	-148.052	49.6324	-58.4744	-161.793	20.7784	-56.4954	-166.186	21.5573	-23.2621	-169.887	51.263	-62.1208	-178.085	23.4496	-48.5209	-176.628	33.1989	-14.1695	-186.037	57.1236	-57.5602	-194.631	30.8272	-42.6659	-183.444	41.4867	-12.9852	-203.999	82.0299	-54.3259	-209.033	71.178	-75.1565	-215.278	65.1739	-99.0124	-181.182	97.7546	-15.2369	-182.322	100.558	14.9345	-148.589	85.9355	-0.228478	
90	0.75	-138.394	55.2794	15.1676	-134.502	40.3362	-9.90291	-124.015	32.3285	-38.2302	-123.744	29.8075	-59.5366	-145.517	52.0279	-57.5903	-153.16	20.9301	-58.016	-160.307	21.7162	-22.2162	-164.821	51.5365	-58.4697	-171.474	21.1517	-49.1361	-169.862	33.7075	-11.8912	-182.399	53.2167	-55.8081	-186.298	24.3751	-39.8215	-179.966	43.3264	-8.32209	-205.704	71.5897	-58.9372	-205.954	61.7642	-74.4089	-211.913	53.6896	-96.2031	-180.938	92.1887	-16.4736	-187.717	96.7484	10.6363	-150.037	89.6947	0.500139	
91	0.758333	-136.481	61.6209	14.5186	-126.741	44.5983	-8.12938	-119.17	37.3558	-33.3622	-118.12	33.3806	-54.1328	-139.675	49.0141	-58.6485	-145.564	21.3743	-55.0671	-151.594	20.7114	-22.1089	-159.668	49.7846	-57.9623	-161.632	17.6867	-42.6263	-163.939	33.6953	-10.5438	-179.63	42.3166	-56.9841	-180.811	20.0194	-37.5252	-177.396	38.8311	-8.75282	-203.022	63.042	-53.958	-207.106	49.6234	-74.6134	-212.085	40.8163	-98.2063	-185.586	89.5502	-19.2195	-189.922	94.7896	8.57294	-156.59	90.0946	-2.8954	
92	0.766667	-136.781	67.6649	15.1197	-127.367	52.0401	-6.16597	-115.795	46.6901	-34.8106	-115.204	41.455	-55.7308	-140.077	55.7524	-56.1056	-137.155	23.4017	-53.2249	-144.687	22.9376	-22.981	-160.744	47.2763	-58.3232	-156.3	18.9871	-42.4849	-155.895	37.0213	-9.05335	-178.02	39.8279	-54.981	-171.158	17.7726	-33.3409	-168.546	36.566	-7.93231	-203.066	53.9663	-55.9379	-201.726	40.5645	-73.0787	-202.482	28.2534	-96.8373	-192.734	84.3734	-19.3185	-193.422	91.3842	12.3235	-164.502	91.8858	-0.344342	
93	0.775	-137.938	74.1415	14.0176	-122.966	60.6889	-10.0804	-114.013	54.8228	-31.51	-105.572	49.9414	-53.3817	-134.543	61.6239	-56.3478	-127.277	29.7251	-53.4304	-134.139	30.408	-18.0049	-151.962	45.1216	-58.3892	-144.879	21.1118	-41.8276	-152.808	39.0508	-9.50969	-171.26	35.1314	-54.5814	-161.537	17.8685	-34.6584	-160.968	40.6726	-7.5641	-195.955	48.0347	-56.3408	-193.944	32.7698	-73.6163	-193.472	17.3407	-95.2012	-190.556	82.8245	-21.0626	-193.863	86.9367	8.76663	-165.637	95.0741	-3.04383	
94	0.783333	-141.321	81.2057	12.5995	-117.908	70.8221	-8.97666	-108.875	65.5697	-36.6871	-105.574	59.8517	-54.537	-130.741	62.9536	-57.8694	-122.734	35.3565	-51.071	-127.986	37.8127	-19.0811	-146.106	47.6634	-58.243	-133.564	26.6704	-37.6011	-147.645	45.6874	-7.42801	-163.909	35.6999	-53.8963	-149.29	20.5874	-34.2551	-157.905	42.0562	-5.1478	-191.041	40.4143	-56.0229	-190.91	23.7768	-69.2343	-186.001	9.56023	-93.0031	-191.108	76.3813	-20.5021	-198.853	83.1656	7.11644	-171.387	93.7228	-5.65521	
95	0.791667	-142.714	88.6628	9.92213	-119.382	81.6448	-8.75454	-112.422	76.8278	-37.5954	-101.489	72.2014	-55.4485	-130.54	67.6879	-60.1113	-116.274	43.5245	-48.6592	-125.982	49.1306	-16.0278	-145.283	48.7293	-57.9948	-126.426	33.1249	-40.5687	-142.05	49.9136	-7.75445	-158.076	34.8732	-52.7814	-141.292	23.2163	-33.7136	-149.161	41.6211	-6.1159	-188.437	33.2446	-52.2186	-177.983	16.1864	-72.1252	-170.592	5.8446	-90.6731	-194.829	70.8364	-24.6876	-198.197	77.1293	7.45139	-172.358	97.923	-8.36439	
96	0.8	-144.403	95.7185	6.88162	-124.134	90.7739	-13.8925	-110.138	88.694	-41.7105	-105.2	82.497	-60.2191	-132.246	75.7459	-59.3436	-108.01	57.0188	-49.3541	-119.472	58.2928	-15.2556	-144.096	55.0505	-56.0518	-121.261	39.7775	-37.3063	-133.872	54.378	-7.31101	-149.724	40.5815	-52.9591	-129.653	31.4341	-30.8334	-142.708	47.4855	-5.0655	-177.101	30.5836	-54.789	-165.829	16.8227	-69.1686	-159.794	2.38611	-86.3151	-193.596	65.4945	-23.2827	-201.625	72.0882	4.85576	-175.494	96.8474	-6.33512	
97	0.808333	-148.622	100.557	6.84371	-126.441	100.422	-13.6359	-116.606	97.434	-37.9096	-107.607	93.4818	-63.7283	-134.93	84.3421	-59.6662	-105.371	67.798	-48.5465	-114.738	69.6761	-15.2082	-141.064	57.9391	-55.9443	-114.313	50.8138	-36.3971	-128.485	64.246	-6.54398	-144.44	43.9128	-51.7964	-123.557	36.3545	-29.8113	-137.373	52.5322	-2.93889	-169.202	29.8616	-52.6352	-155.208	19.4982	-68.7442	-146.935	5.97344	-87.0634	-190.717	65.298	-22.9373	-198.768	67.1478	10.3109	-180.245	93.2068	-10.3583	
98	0.816667	-151.589	108.541	6.60139	-128.398	110.981	-13.9427	-119.361	107.701	-43.2621	-113.429	101.6	-62.4255	-135.955	86.6581	-59.5858	-105.233	77.7681	-48.9998	-111.332	77.6427	-17.2114	-136.467	64.1024	-56.0538	-110.194	60.9765	-40.6517	-126.9	71.6435	-5.54388	-138.395	46.8844	-50.1491	-117.135	43.9669	-29.9722	-130.335	59.3163	-3.30049	-160.03	31.3732	-50.9333	-144.92	23.7002	-67.2002	-134.966	11.1162	-87.7003	-186.711	60.215	-22.3517	-195.782	62.8584	10.6396	-181.43	94.5557	-6.10816	
99	0.825	-156.356	108.103	2.52955	-135.636	115.339	-17.8661	-124.636	117.459	-41.4196	-116.383	112.802	-61.7218	-133.389	90.6458	-60.6447	-105.422	86.9927	-51.9153	-112.051	86.8516	-16.5775	-134.1	68.9791	-55.8986	-106.412	71.3967	-36.6244	-125.039	80.044	-4.86034	-130.389	51.3536	-48.9793	-110.681	57.3486	-28.6369	-128.081	69.4989	-2.8624	-152.934	35.585	-48.6213	-137.224	28.211	-64.7172	-124.592	20.6307	-83.7663	-184.313	56.0176	-20.7608	-191.481	61.124	7.54616	-186.13	90.0994	-7.33657	
100	0.833333	-160.59	109.716	7.73274	-141.399	121.505	-17.8284	-131.841	123.166	-40.9181	-122.991	122.223	-62.6996	-136.679	96.6105	-59.6549	-107.576	95.795	-51.6934	-114.794	93.7127	-15.48	-127.222	74.1321	-56.0785	-104.316	79.6162	-37.4408	-123.659	88.1646	-5.09191	-128.69	58.2852	-48.5226	-107.097	66.9749	-28.5239	-128.24	74.7878	-0.0979157	-143.045	33.7981	-48.7769	-128.803	34.4245	-64.4401	-116.32	27.2943	-84.1736	-178.369	53.3523	-20.7585	-187.913	59.5296	11.6073	-184.02	89.2484	-8.49006	
